<svg width="40" height="40" viewBox="0 0 40 40" fill="none" xmlns="http://www.w3.org/2000/svg">
<path d="M18.8667 5H8.48333C5.16667 5 3.5 6.68333 3.5 10.0333V36.6667H12.5V30.4167C12.5 29.7333 13.0667 29.1667 13.75 29.1667C14.4333 29.1667 15 29.7167 15 30.4167V36.6667H23.8333V10.0333C23.8333 6.68333 22.1833 5 18.8667 5ZM17.9167 21.25H9.66667C8.98333 21.25 8.41667 20.6833 8.41667 20C8.41667 19.3167 8.98333 18.75 9.66667 18.75H17.9167C18.6 18.75 19.1667 19.3167 19.1667 20C19.1667 20.6833 18.6 21.25 17.9167 21.25ZM17.9167 15H9.66667C8.98333 15 8.41667 14.4333 8.41667 13.75C8.41667 13.0667 8.98333 12.5 9.66667 12.5H17.9167C18.6 12.5 19.1667 13.0667 19.1667 13.75C19.1667 14.4333 18.6 15 17.9167 15Z" fill="white"/>
<path d="M38.3333 35.4167H34.55V30.4167C36.1333 29.9 37.2833 28.4167 37.2833 26.6667V23.3334C37.2833 21.15 35.5 19.3667 33.3166 19.3667C31.1333 19.3667 29.35 21.15 29.35 23.3334V26.6667C29.35 28.4 30.4833 29.8667 32.0333 30.4V35.4167H1.66663C0.983293 35.4167 0.416626 35.9834 0.416626 36.6667C0.416626 37.35 0.983293 37.9167 1.66663 37.9167H33.2166C33.25 37.9167 33.2666 37.9334 33.3 37.9334C33.3333 37.9334 33.35 37.9167 33.3833 37.9167H38.3333C39.0166 37.9167 39.5833 37.35 39.5833 36.6667C39.5833 35.9834 39.0166 35.4167 38.3333 35.4167Z" fill="white"/>
</svg>
