<svg width="40" height="40" viewBox="0 0 40 40" fill="none" xmlns="http://www.w3.org/2000/svg">
<path d="M20 25C26.2132 25 31.25 20.1498 31.25 14.1667C31.25 8.18362 26.2132 3.33337 20 3.33337C13.7868 3.33337 8.75 8.18362 8.75 14.1667C8.75 20.1498 13.7868 25 20 25Z" fill="white"/>
<path d="M26.3167 26.0167C26.8667 25.7334 27.5 26.15 27.5 26.7667V34.85C27.5 36.35 26.45 37.0834 25.15 36.4667L20.6833 34.35C20.3 34.1834 19.7 34.1834 19.3167 34.35L14.85 36.4667C13.55 37.0667 12.5 36.3334 12.5 34.8334L12.5333 26.7667C12.5333 26.15 13.1833 25.75 13.7167 26.0167C15.6 26.9667 17.7333 27.5 20 27.5C22.2667 27.5 24.4167 26.9667 26.3167 26.0167Z" fill="white"/>
</svg>
