<svg width="40" height="40" viewBox="0 0 40 40" fill="none" xmlns="http://www.w3.org/2000/svg">
<path fill-rule="evenodd" clip-rule="evenodd" d="M8 0C3.58172 0 0 3.58172 0 8V30C0 34.4183 3.58172 38 8 38H30C34.4183 38 38 34.4183 38 30V8C38 3.58172 34.4183 0 30 0H8ZM26.6579 11.0762C28.6943 13.0336 29.8888 15.695 29.9924 18.5046C30.0463 19.943 29.8123 21.3777 29.3038 22.7259C28.7953 24.0742 28.0224 25.3093 27.0298 26.36C26.0371 27.4106 24.8444 28.256 23.5203 28.8473C22.1963 29.4387 20.7671 29.7643 19.3154 29.8054H19.0008C17.3505 29.8058 15.7213 29.4385 14.2336 28.7306L8.47564 30H8.4589C8.44685 29.9999 8.43496 29.9974 8.42401 29.9924C8.41306 29.9874 8.4033 29.9802 8.39538 29.9712C8.38746 29.9622 8.38156 29.9516 8.37809 29.9402C8.37462 29.9287 8.37364 29.9167 8.37522 29.9049L9.34809 24.1351C8.43189 22.4737 7.96788 20.6047 8.00173 18.7117C8.03557 16.8187 8.56611 14.967 9.54112 13.3389C10.5161 11.7109 11.902 10.3624 13.5625 9.42627C15.2229 8.49014 17.1006 7.9986 19.0109 8H19.0645C21.9011 8.01666 24.6216 9.11877 26.6579 11.0762ZM19.0008 27.909H19.2608L19.2708 27.9123C21.654 27.8386 23.9126 26.84 25.56 25.1316C27.2073 23.4231 28.1116 21.1417 28.078 18.7788C28.0443 16.4159 27.0754 14.1606 25.38 12.499C23.6847 10.8373 21.3986 9.90226 19.0142 9.89526H18.7499C17.1706 9.93976 15.6303 10.3912 14.2807 11.2052C12.931 12.0191 11.8186 13.1674 11.0529 14.5371C10.2873 15.9067 9.89477 17.4504 9.91412 19.0161C9.93347 20.5818 10.364 22.1155 11.1633 23.4661L11.3306 23.7469L10.6099 27.6624L14.5147 26.748L14.8093 26.9006C16.1047 27.5649 17.5423 27.9108 19.0008 27.909ZM14.7819 13.7266C14.9061 13.6717 15.0402 13.6421 15.1761 13.6394V13.6361H15.1995C15.3836 13.6416 15.5677 13.6472 15.7283 13.6582L15.7296 13.6583C15.9245 13.6727 16.1472 13.6891 16.3342 14.158C16.4677 14.4758 16.6885 15.0678 16.8637 15.5376L16.8638 15.5377C16.9916 15.8804 17.0952 16.1582 17.1229 16.2169C17.1643 16.29 17.1866 16.3721 17.188 16.4559C17.1894 16.5397 17.1697 16.6225 17.1308 16.6968C17.0555 16.857 16.9579 17.0059 16.8407 17.1391C16.7952 17.1888 16.7491 17.2409 16.703 17.2931L16.703 17.2931C16.6044 17.4048 16.5054 17.5168 16.4111 17.6058C16.2728 17.7362 16.1211 17.88 16.2728 18.1586C16.6654 18.8765 17.1632 19.5327 17.7499 20.1059C18.3779 20.7153 19.1154 21.2029 19.9244 21.5433C20.018 21.5919 20.1212 21.6195 20.2267 21.6241C20.284 21.6231 20.3404 21.6101 20.3923 21.5862C20.4442 21.5621 20.4904 21.5276 20.5279 21.4847C20.6998 21.3122 21.2119 20.714 21.435 20.4386C21.4698 20.3822 21.5179 20.3349 21.5753 20.301C21.6326 20.267 21.6974 20.2475 21.7641 20.2441C21.8665 20.2516 21.9667 20.2774 22.0598 20.3204C22.268 20.4029 23.2227 20.904 23.6974 21.1532C23.7949 21.2044 23.8721 21.245 23.9185 21.2691C23.9575 21.2894 23.9947 21.3084 24.0299 21.3264L24.0301 21.3265C24.2403 21.4341 24.3809 21.5061 24.4372 21.6008C24.5031 21.7114 24.4864 22.2643 24.2364 22.8968C23.9866 23.5293 22.8407 24.1109 22.3331 24.1418C22.2839 24.1447 22.2354 24.1488 22.1857 24.153C22.0834 24.1616 21.9762 24.1706 21.8478 24.1706C21.3848 24.1706 20.6708 24.0512 19.0419 23.3556C16.483 22.2663 14.8525 19.7025 14.513 19.1687C14.4849 19.1244 14.4656 19.094 14.4554 19.0797L14.4543 19.0782C14.3176 18.8858 13.3733 17.5568 13.4156 16.2136C13.4553 14.9513 14.1017 14.3087 14.3985 14.0137C14.4184 13.9939 14.4367 13.9757 14.4532 13.959C14.546 13.8605 14.6578 13.7815 14.7819 13.7266Z" fill="white"/>
</svg>
