<svg width="40" height="40" viewBox="0 0 40 40" fill="none" xmlns="http://www.w3.org/2000/svg">
<path d="M28.3334 3.33325H11.6667C7.06671 3.33325 3.33337 7.04992 3.33337 11.6333V21.5999V23.2666C3.33337 27.8499 7.06671 31.5666 11.6667 31.5666H14.1667C14.6167 31.5666 15.2167 31.8666 15.5 32.2333L18 35.5499C19.1 37.0166 20.9 37.0166 22 35.5499L24.5 32.2333C24.8167 31.8166 25.3167 31.5666 25.8334 31.5666H28.3334C32.9334 31.5666 36.6667 27.8499 36.6667 23.2666V11.6333C36.6667 7.04992 32.9334 3.33325 28.3334 3.33325ZM13.3334 19.9999C12.4 19.9999 11.6667 19.2499 11.6667 18.3333C11.6667 17.4166 12.4167 16.6666 13.3334 16.6666C14.25 16.6666 15 17.4166 15 18.3333C15 19.2499 14.2667 19.9999 13.3334 19.9999ZM20 19.9999C19.0667 19.9999 18.3334 19.2499 18.3334 18.3333C18.3334 17.4166 19.0834 16.6666 20 16.6666C20.9167 16.6666 21.6667 17.4166 21.6667 18.3333C21.6667 19.2499 20.9334 19.9999 20 19.9999ZM26.6667 19.9999C25.7334 19.9999 25 19.2499 25 18.3333C25 17.4166 25.75 16.6666 26.6667 16.6666C27.5834 16.6666 28.3334 17.4166 28.3334 18.3333C28.3334 19.2499 27.6 19.9999 26.6667 19.9999Z" fill="white"/>
</svg>
