<svg width="40" height="40" viewBox="0 0 40 40" fill="none" xmlns="http://www.w3.org/2000/svg">
<path d="M15.25 12.4834C14.3166 12.4834 13.5833 13.2334 13.5833 14.1501C13.5833 15.0667 14.3333 15.8167 15.25 15.8167C16.1666 15.8167 16.9166 15.0667 16.9166 14.1501C16.9166 13.2334 16.1666 12.4834 15.25 12.4834Z" fill="white"/>
<path d="M35.7666 8.39992C34.3666 5.14992 31.2833 3.33325 26.9833 3.33325H13.0166C7.66665 3.33325 3.33331 7.66658 3.33331 13.0166V26.9833C3.33331 31.2833 5.14998 34.3666 8.39998 35.7666C8.71665 35.8999 9.08331 35.8166 9.31665 35.5833L35.5833 9.31659C35.8333 9.06659 35.9166 8.69992 35.7666 8.39992ZM17.55 20.3999C16.9 21.0333 16.05 21.3333 15.2 21.3333C14.35 21.3333 13.5 21.0166 12.85 20.3999C11.15 18.7999 9.28331 16.2499 9.99998 13.2166C10.6333 10.4666 13.0666 9.23325 15.2 9.23325C17.3333 9.23325 19.7666 10.4666 20.4 13.2333C21.1 16.2499 19.2333 18.7999 17.55 20.3999Z" fill="white"/>
<path d="M32.45 34.2166C32.8167 34.5833 32.7667 35.1833 32.3167 35.4333C30.85 36.25 29.0667 36.6666 26.9834 36.6666H13.0167C12.5334 36.6666 12.3334 36.0999 12.6667 35.7666L22.7334 25.7C23.0667 25.3666 23.5834 25.3666 23.9167 25.7L32.45 34.2166Z" fill="white"/>
<path d="M36.6667 13.0166V26.9832C36.6667 29.0666 36.25 30.8666 35.4334 32.3166C35.1834 32.7666 34.5834 32.7999 34.2167 32.4499L25.6833 23.9166C25.35 23.5832 25.35 23.0666 25.6833 22.7332L35.75 12.6666C36.1 12.3332 36.6667 12.5332 36.6667 13.0166Z" fill="white"/>
</svg>
