<svg width="40" height="40" viewBox="0 0 40 40" fill="none" xmlns="http://www.w3.org/2000/svg">
<path d="M30 3.33337H10C7.23333 3.33337 5 5.55004 5 8.28337V26.4667C5 29.2 7.23333 31.4167 10 31.4167H11.2667C12.6 31.4167 13.8667 31.9334 14.8 32.8667L17.65 35.6834C18.95 36.9667 21.0667 36.9667 22.3667 35.6834L25.2167 32.8667C26.15 31.9334 27.4333 31.4167 28.75 31.4167H30C32.7667 31.4167 35 29.2 35 26.4667V8.28337C35 5.55004 32.7667 3.33337 30 3.33337ZM27.8 17.5L25.85 23.4334C25.6 24.4167 24.55 25.2167 23.4833 25.2167H20.4C19.8667 25.2167 19.1167 25.0334 18.7833 24.7L16.3333 22.7834C16.2833 23.85 15.8 24.3 14.6167 24.3H13.8167C12.5833 24.3 12.0833 23.8167 12.0833 22.65V14.7C12.0833 13.5334 12.5833 13.05 13.8167 13.05H14.6333C15.8667 13.05 16.3667 13.5334 16.3667 14.7V15.3L19.6 10.5C19.9333 9.98337 20.7833 9.61671 21.5 9.90004C22.2833 10.1667 22.7833 11.0334 22.6167 11.8L22.2167 14.4C22.1667 14.6167 22.2167 14.85 22.3667 15C22.5 15.15 22.7 15.25 22.9167 15.25H26.1667C26.8 15.25 27.3333 15.5 27.65 15.95C27.95 16.3834 28 16.9334 27.8 17.5Z" fill="white"/>
</svg>
