<svg width="56" height="57" viewBox="0 0 56 57" fill="none" xmlns="http://www.w3.org/2000/svg">
<path d="M49.5833 43.5967L45.7333 44.5067C44.87 44.7167 44.1933 45.37 44.0067 46.2333L43.19 49.6633C42.7467 51.53 40.3667 52.1133 39.13 50.6433L32.1533 42.6167C31.5933 41.9633 31.8967 40.9367 32.7367 40.7267C36.8667 39.7233 40.5767 37.4133 43.3067 34.1233C43.75 33.5867 44.5433 33.5167 45.0333 34.0067L50.2133 39.1867C51.9867 40.96 51.3567 43.1767 49.5833 43.5967Z" fill="white"/>
<path d="M6.30001 43.5967L10.15 44.5067C11.0133 44.7167 11.69 45.37 11.8767 46.2333L12.6933 49.6633C13.1367 51.53 15.5167 52.1133 16.7533 50.6433L23.73 42.6167C24.29 41.9633 23.9867 40.9367 23.1467 40.7267C19.0167 39.7233 15.3067 37.4133 12.5767 34.1233C12.1333 33.5867 11.34 33.5167 10.85 34.0067L5.67001 39.1867C3.89668 40.96 4.52668 43.1767 6.30001 43.5967Z" fill="white"/>
<path d="M28 5.16669C18.97 5.16669 11.6667 12.47 11.6667 21.5C11.6667 24.8834 12.67 27.9867 14.3967 30.5767C16.9167 34.31 20.9067 36.9467 25.55 37.6234C26.3434 37.7634 27.16 37.8334 28 37.8334C28.84 37.8334 29.6567 37.7634 30.45 37.6234C35.0934 36.9467 39.0834 34.31 41.6034 30.5767C43.33 27.9867 44.3334 24.8834 44.3334 21.5C44.3334 12.47 37.03 5.16669 28 5.16669ZM35.14 20.9867L33.2034 22.9234C32.8767 23.25 32.69 23.88 32.8067 24.3467L33.3667 26.75C33.81 28.64 32.8067 29.3867 31.1267 28.3834L28.7934 27.0067C28.3734 26.75 27.6734 26.75 27.2534 27.0067L24.92 28.3834C23.24 29.3634 22.2367 28.64 22.68 26.75L23.24 24.3467C23.3334 23.9034 23.17 23.25 22.8434 22.9234L20.86 20.9867C19.7167 19.8434 20.09 18.7 21.6767 18.4434L24.1734 18.0234C24.5934 17.9534 25.0834 17.58 25.27 17.2067L26.6467 14.4534C27.3934 12.96 28.6067 12.96 29.3534 14.4534L30.73 17.2067C30.9167 17.58 31.4067 17.9534 31.85 18.0234L34.3467 18.4434C35.91 18.7 36.2834 19.8434 35.14 20.9867Z" fill="white"/>
</svg>
