<svg width="24" height="24" viewBox="0 0 24 24" fill="none" xmlns="http://www.w3.org/2000/svg">
<path d="M22.3928 11.5227C22.2938 8.81496 21.1528 6.25015 19.2078 4.36375C17.2628 2.47735 14.6643 1.41523 11.9549 1.39917H11.9037C10.0791 1.39782 8.28563 1.87153 6.69964 2.7737C5.11369 3.67586 3.78994 4.97539 2.85865 6.54442C1.92736 8.11345 1.42062 9.89795 1.38829 11.7222C1.35596 13.5466 1.79916 15.3478 2.67427 16.9489L1.74504 22.5094C1.74353 22.5207 1.74446 22.5323 1.74778 22.5434C1.75109 22.5544 1.75673 22.5646 1.76429 22.5732C1.77185 22.5819 1.78117 22.5889 1.79163 22.5937C1.80209 22.5985 1.81346 22.601 1.82496 22.601H1.84095L7.34067 21.3777C8.76168 22.0599 10.3178 22.4139 11.8941 22.4135C11.9943 22.4135 12.0945 22.4135 12.1946 22.4135C13.5812 22.3739 14.9463 22.0601 16.2109 21.4902C17.4756 20.9203 18.6148 20.1056 19.563 19.093C20.5111 18.0805 21.2493 16.8902 21.735 15.5909C22.2207 14.2915 22.4442 12.9089 22.3928 11.5227ZM12.1424 20.5859C12.0593 20.5859 11.9762 20.5859 11.8941 20.5859C10.501 20.5876 9.12784 20.2543 7.89054 19.614L7.60922 19.467L3.8795 20.3483L4.5679 16.5748L4.40806 16.3042C3.64462 15.0026 3.2334 13.5245 3.21492 12.0156C3.19644 10.5067 3.57132 9.01899 4.30265 7.69907C5.03399 6.37912 6.09653 5.27245 7.38564 4.48805C8.67476 3.70364 10.146 3.26856 11.6544 3.22567C11.7382 3.22567 11.8224 3.22567 11.9069 3.22567C14.1843 3.23242 16.3679 4.13355 17.9872 5.73493C19.6066 7.33629 20.532 9.50974 20.5642 11.7869C20.5963 14.0641 19.7326 16.2627 18.1591 17.9092C16.5856 19.5557 14.4283 20.5181 12.152 20.5891L12.1424 20.5859Z" fill="#0062FF"/>
<path d="M8.2409 6.834C8.11108 6.83654 7.98306 6.8651 7.86445 6.918C7.74584 6.9709 7.63905 7.04706 7.5504 7.14198C7.29997 7.39879 6.59986 8.01686 6.55936 9.31481C6.51887 10.6127 7.42572 11.8968 7.55253 12.0769C7.67935 12.257 9.2863 15.0607 11.9333 16.1977C13.4892 16.868 14.1712 16.9831 14.6134 16.9831C14.7957 16.9831 14.9331 16.9639 15.0769 16.9554C15.5618 16.9256 16.6563 16.3651 16.8949 15.7555C17.1337 15.1459 17.1496 14.6131 17.0867 14.5066C17.0239 14.4 16.8512 14.3232 16.5912 14.1868C16.3312 14.0504 15.0557 13.3685 14.8159 13.2726C14.727 13.2311 14.6313 13.2063 14.5335 13.1991C14.4698 13.2024 14.4079 13.2212 14.3531 13.2539C14.2983 13.2865 14.2523 13.3321 14.2191 13.3865C14.006 13.6519 13.5169 14.2284 13.3527 14.3947C13.3169 14.436 13.2727 14.4693 13.2232 14.4924C13.1737 14.5155 13.1197 14.528 13.065 14.529C12.9642 14.5245 12.8657 14.498 12.7763 14.4512C12.0036 14.123 11.2991 13.6531 10.6993 13.0658C10.1389 12.5135 9.66341 11.8811 9.28842 11.1893C9.14354 10.9207 9.28842 10.7822 9.42057 10.6565C9.55273 10.5307 9.69443 10.357 9.83083 10.2067C9.94278 10.0784 10.0361 9.93489 10.1079 9.78047C10.1451 9.70881 10.1639 9.62902 10.1626 9.54831C10.1613 9.46753 10.14 9.38845 10.1004 9.31799C10.0376 9.18371 9.56764 7.86341 9.34707 7.33379C9.16806 6.8809 8.95491 6.86598 8.76841 6.85213C8.61498 6.84147 8.43914 6.83614 8.26331 6.83081H8.2409" fill="#0062FF"/>
</svg>
