<svg width="24" height="24" viewBox="0 0 24 24" fill="none" xmlns="http://www.w3.org/2000/svg">
<path d="M22.3927 11.5226C22.2938 8.81488 21.1528 6.25006 19.2078 4.36366C17.2628 2.47727 14.6643 1.41515 11.9548 1.39909H11.9037C10.0791 1.39773 8.28559 1.87145 6.6996 2.77361C5.11364 3.67578 3.78989 4.97531 2.8586 6.54434C1.92731 8.11337 1.42058 9.89786 1.38825 11.7221C1.35592 13.5465 1.79911 15.3477 2.67423 16.9488L1.74499 22.5093C1.74348 22.5207 1.74441 22.5322 1.74773 22.5433C1.75105 22.5543 1.75668 22.5645 1.76424 22.5732C1.77181 22.5819 1.78113 22.5888 1.79159 22.5936C1.80205 22.5984 1.81341 22.6009 1.82492 22.6009H1.8409L7.34063 21.3776C8.76164 22.0598 10.3178 22.4138 11.8941 22.4134C11.9943 22.4134 12.0944 22.4134 12.1946 22.4134C13.5812 22.3738 14.9462 22.06 16.2108 21.4901C17.4755 20.9202 18.6148 20.1055 19.5629 19.093C20.5111 18.0804 21.2493 16.8902 21.735 15.5908C22.2206 14.2914 22.4442 12.9088 22.3927 11.5226ZM12.1423 20.5858C12.0592 20.5858 11.9761 20.5858 11.8941 20.5858C10.501 20.5875 9.12779 20.2542 7.8905 19.614L7.60917 19.4669L3.87946 20.3482L4.56785 16.5747L4.40801 16.3041C3.64457 15.0025 3.23335 13.5244 3.21487 12.0155C3.19639 10.5066 3.57128 9.01891 4.3026 7.69899C5.03394 6.37904 6.09648 5.27237 7.3856 4.48796C8.67471 3.70355 10.1459 3.26848 11.6543 3.22559C11.7382 3.22559 11.8223 3.22559 11.9069 3.22559C14.1843 3.23234 16.3679 4.13347 17.9872 5.73484C19.6065 7.33621 20.532 9.50966 20.5641 11.7868C20.5962 14.064 19.7325 16.2627 18.1591 17.9091C16.5855 19.5556 14.4283 20.518 12.152 20.589L12.1423 20.5858Z" fill="white"/>
<path d="M8.24084 6.83387C8.11102 6.8364 7.983 6.86496 7.86439 6.91786C7.74578 6.97076 7.63899 7.04692 7.55034 7.14184C7.29991 7.39866 6.59979 8.01672 6.5593 9.31467C6.51881 10.6126 7.42566 11.8967 7.55247 12.0768C7.67928 12.2569 9.28624 15.0606 11.9333 16.1976C13.4891 16.8679 14.1711 16.9829 14.6133 16.9829C14.7956 16.9829 14.9331 16.9638 15.0769 16.9552C15.5618 16.9254 16.6562 16.3649 16.8949 15.7554C17.1336 15.1458 17.1496 14.613 17.0867 14.5064C17.0238 14.3999 16.8512 14.3231 16.5912 14.1867C16.3312 14.0503 15.0556 13.3683 14.8158 13.2724C14.7269 13.231 14.6312 13.2061 14.5334 13.1989C14.4697 13.2022 14.4078 13.221 14.353 13.2538C14.2983 13.2864 14.2523 13.332 14.2191 13.3864C14.006 13.6518 13.5168 14.2283 13.3527 14.3946C13.3168 14.4358 13.2727 14.4691 13.2231 14.4923C13.1736 14.5154 13.1197 14.5278 13.065 14.5288C12.9642 14.5244 12.8656 14.4978 12.7762 14.451C12.0035 14.1229 11.2991 13.653 10.6993 13.0657C10.1388 12.5133 9.66334 11.8809 9.28836 11.1891C9.14348 10.9206 9.28836 10.7821 9.42051 10.6563C9.55267 10.5305 9.69437 10.3569 9.83077 10.2066C9.94271 10.0782 10.036 9.93476 10.1079 9.78034C10.1451 9.70867 10.1638 9.62888 10.1625 9.54818C10.1612 9.4674 10.1399 9.38831 10.1004 9.31785C10.0376 9.18357 9.56758 7.86327 9.34701 7.33365C9.168 6.88076 8.95485 6.86584 8.76835 6.85199C8.61491 6.84133 8.43908 6.836 8.26325 6.83067H8.24084" fill="white"/>
</svg>
