<svg width="160" height="32" viewBox="0 0 160 32" fill="none" xmlns="http://www.w3.org/2000/svg">
<g clip-path="url(#clip0_135_613)">
<path d="M5.56769 7.8252L24.175 26.4325C23.0558 27.9994 22.4 29.9194 22.4 32.0002H9.6C9.6 26.6973 5.30286 22.4002 0 22.4002V9.60017C2.08079 9.60017 4.00079 8.94441 5.56769 7.8252Z" fill="url(#paint0_linear_135_613)"/>
<path d="M32 9.6V22.4C29.9192 22.4 27.9992 23.0558 26.4323 24.175L7.82502 5.56769C8.94424 4.00079 9.6 2.08079 9.6 0H22.4C22.4 5.30286 26.6971 9.6 32 9.6Z" fill="url(#paint1_linear_135_613)"/>
<path d="M58.24 24.3167V27.4284H42.0792V4.57129H47.6437V24.3167H58.24Z" fill="#03296C"/>
<path d="M61.8656 27.4284V4.57129H67.4302V27.4284H61.8656Z" fill="#03296C"/>
<path d="M93.2004 4.57129V27.4284H86.6932L77.1972 9.28774L77.5125 27.4284H71.948V4.57129H78.4552L87.9511 22.712L87.6359 4.57129H93.2004Z" fill="#03296C"/>
<path d="M97.7182 27.4284V4.57129H107.183C110.808 4.57129 113.564 5.58331 115.452 7.6042C117.338 9.62824 118.283 12.4215 118.283 15.9841C118.283 19.5467 117.341 22.3715 115.452 24.3955C113.567 26.4196 110.808 27.4284 107.183 27.4284H97.7182ZM106.237 7.80912H103.283V24.1906H106.237C107.766 24.1906 108.983 23.8343 109.885 23.1218C110.786 22.4093 111.429 21.4351 111.817 20.1993C112.205 18.9634 112.397 17.5573 112.397 15.9872C112.397 14.4172 112.199 13.0174 111.801 11.791C111.404 10.5646 110.758 9.59671 109.869 8.8842C108.977 8.17168 107.766 7.81543 106.237 7.81543V7.80912Z" fill="#03296C"/>
<path d="M118.28 27.4284L126.203 4.57129H133.057L140.948 27.4284H134.816L132.994 21.8954H123.687L121.77 27.4284H118.28ZM124.756 18.8152H131.988L128.467 8.12439L124.756 18.8152Z" fill="#03296C"/>
<path d="M160 24.3167V27.4284H143.839V4.57129H149.404V24.3167H160Z" fill="#03296C"/>
</g>
<defs>
<linearGradient id="paint0_linear_135_613" x1="17.9515" y1="34.5696" x2="-2.23212" y2="-0.387613" gradientUnits="userSpaceOnUse">
<stop offset="0.13" stop-color="#03296C"/>
<stop offset="0.23" stop-color="#2E5289"/>
<stop offset="0.36" stop-color="#5A7EA7"/>
<stop offset="0.48" stop-color="#7EA0BF"/>
<stop offset="0.59" stop-color="#97B9D0"/>
<stop offset="0.69" stop-color="#A6C7DA"/>
<stop offset="0.77" stop-color="#ACCDDE"/>
</linearGradient>
<linearGradient id="paint1_linear_135_613" x1="26.0887" y1="24.5533" x2="16.268" y2="-2.42759" gradientUnits="userSpaceOnUse">
<stop offset="0.16" stop-color="#ACCDDE"/>
<stop offset="0.25" stop-color="#A1C6DF"/>
<stop offset="0.41" stop-color="#86B5E5"/>
<stop offset="0.61" stop-color="#5999ED"/>
<stop offset="0.85" stop-color="#1B73F9"/>
<stop offset="0.95" stop-color="#0062FF"/>
</linearGradient>
<clipPath id="clip0_135_613">
<rect width="160" height="32" fill="white"/>
</clipPath>
</defs>
</svg>
