<svg width="160" height="32" viewBox="0 0 160 32" fill="none" xmlns="http://www.w3.org/2000/svg">
<g id="logo-lindal-branco" clip-path="url(#clip0_95_91)">
<g id="Text">
<path id="Vector" d="M58.24 24.4177V27.5295H42.0792V4.67231H47.6437V24.4177H58.24Z" fill="white"/>
<path id="Vector_2" d="M61.8656 27.5295V4.67231H67.4302V27.5295H61.8656Z" fill="white"/>
<path id="Vector_3" d="M93.2004 4.67231V27.5295H86.6932L77.1972 9.38877L77.5125 27.5295H71.948V4.67231H78.4552L87.9511 22.813L87.6359 4.67231H93.2004Z" fill="white"/>
<path id="Vector_4" d="M97.7182 27.5295V4.67231H107.183C110.808 4.67231 113.564 5.68433 115.452 7.70522C117.338 9.72926 118.283 12.5226 118.283 16.0851C118.283 19.6477 117.341 22.4725 115.452 24.4965C113.567 26.5206 110.808 27.5295 107.183 27.5295H97.7182ZM106.237 7.91015H103.283V24.2916H106.237C107.766 24.2916 108.983 23.9354 109.885 23.2229C110.786 22.5103 111.429 21.5362 111.817 20.3003C112.205 19.0644 112.397 17.6583 112.397 16.0883C112.397 14.5182 112.199 13.1184 111.801 11.892C111.404 10.6656 110.758 9.69773 109.869 8.98522C108.977 8.27271 107.766 7.91645 106.237 7.91645V7.91015Z" fill="white"/>
<path id="Vector_5" d="M118.28 27.5295L126.203 4.67231H133.057L140.948 27.5295H134.816L132.994 21.9965H123.687L121.77 27.5295H118.28ZM124.756 18.9163H131.988L128.467 8.22542L124.756 18.9163Z" fill="white"/>
<path id="Vector_6" d="M160 24.4177V27.5295H143.839V4.67231H149.404V24.4177H160Z" fill="white"/>
</g>
<g id="Icon">
<path id="Vector_7" d="M5.56769 7.82502L24.175 26.4323C23.0558 27.9992 22.4 29.9192 22.4 32H9.6C9.6 26.6971 5.30286 22.4 0 22.4V9.6C2.08079 9.6 4.00079 8.94424 5.56769 7.82502Z" fill="url(#paint0_linear_95_91)"/>
<path id="Vector_8" d="M32 9.6V22.4C29.9192 22.4 27.9992 23.0558 26.4323 24.175L7.82502 5.56769C8.94424 4.00079 9.6 2.08079 9.6 0H22.4C22.4 5.30286 26.6971 9.6 32 9.6Z" fill="url(#paint1_linear_95_91)"/>
</g>
</g>
<defs>
<linearGradient id="paint0_linear_95_91" x1="21.0349" y1="33.3651" x2="-1.36512" y2="10.9651" gradientUnits="userSpaceOnUse">
<stop stop-color="white" stop-opacity="0"/>
<stop offset="1" stop-color="white"/>
</linearGradient>
<linearGradient id="paint1_linear_95_91" x1="33.3651" y1="21.0349" x2="10.9651" y2="-1.36512" gradientUnits="userSpaceOnUse">
<stop stop-color="white"/>
<stop offset="1" stop-color="white" stop-opacity="0"/>
</linearGradient>
<clipPath id="clip0_95_91">
<rect width="160" height="32" fill="white"/>
</clipPath>
</defs>
</svg>
